<svg width="81" height="34" viewBox="0 0 81 34" fill="none" xmlns="http://www.w3.org/2000/svg">
<path d="M28.5 4.75244V21.7524" stroke="#FF9B25" stroke-width="2" stroke-linecap="round"/>
<path d="M25.5 7.75244V18.7524" stroke="#E58C22" stroke-width="2" stroke-linecap="round"/>
<path d="M55.5 7.75244V18.7524" stroke="#E58C22" stroke-width="2" stroke-linecap="round"/>
<path d="M52.5 4.75244V21.7524" stroke="#FF9B25" stroke-width="2" stroke-linecap="round"/>
<path d="M31.5 3.75244V24.7524" stroke="#FF9B25" stroke-width="2" stroke-linecap="round"/>
<path d="M34.5 3.75244V27.7524" stroke="#FF9B25" stroke-width="2" stroke-linecap="round"/>
<path d="M37.5 4.75244V29.7524" stroke="#FF9B25" stroke-width="2" stroke-linecap="round"/>
<path d="M40.5 6.75244V32.7524" stroke="#FF9B25" stroke-width="2" stroke-linecap="round"/>
<path d="M43.5 4.75244V29.7524" stroke="#FF9B25" stroke-width="2" stroke-linecap="round"/>
<path d="M46.5 3.75244V27.7524" stroke="#FF9B25" stroke-width="2" stroke-linecap="round"/>
<path d="M49.5 3.75244V24.7524" stroke="#FF9B25" stroke-width="2" stroke-linecap="round"/>
<path d="M1 8.25244L1 18.2524" stroke="black" stroke-width="2" stroke-linecap="round"/>
<path d="M4 1L4 25.5051" stroke="black" stroke-width="2" stroke-linecap="round"/>
<path d="M7 5.50146L7 21.0035" stroke="black" stroke-width="2" stroke-linecap="round"/>
<path d="M10 7.37622L10 19.129" stroke="black" stroke-width="2" stroke-linecap="round"/>
<path d="M13 6.22119L13 20.2839" stroke="black" stroke-width="2" stroke-linecap="round"/>
<path d="M16 6.00244L16 20.5025" stroke="black" stroke-width="2" stroke-linecap="round"/>
<path d="M19 4.00244V22.5025" stroke="#3F280D" stroke-width="2" stroke-linecap="round"/>
<path d="M22 7.25244V19.2524" stroke="#A6681F" stroke-width="2" stroke-linecap="round"/>
<path d="M59 6.75244V19.7524" stroke="#A6681F" stroke-width="2" stroke-linecap="round"/>
<path d="M62 4.27734V22.2276" stroke="#3F280D" stroke-width="2" stroke-linecap="round"/>
<path d="M65 1.03735V25.4676" stroke="black" stroke-width="2" stroke-linecap="round"/>
<path d="M68 7.75244V18.7524" stroke="black" stroke-width="2" stroke-linecap="round"/>
<path d="M71 5.2998V21.2051" stroke="black" stroke-width="2" stroke-linecap="round"/>
<path d="M74 4.87744V21.6275" stroke="black" stroke-width="2" stroke-linecap="round"/>
<path d="M77 9.25244V17.2524" stroke="black" stroke-width="2" stroke-linecap="round"/>
<path d="M80 5.74829V20.7569" stroke="black" stroke-width="2" stroke-linecap="round"/>
</svg>
