<svg width="188" height="101" viewBox="0 0 188 101" fill="none" xmlns="http://www.w3.org/2000/svg">
<mask id="mask0_105_300" style="mask-type:alpha" maskUnits="userSpaceOnUse" x="69" y="0" width="50" height="50">
<rect x="69" width="50" height="50" fill="#D9D9D9"/>
</mask>
<g mask="url(#mask0_105_300)">
<path d="M83.5833 37.5001V12.5001H87.75V37.5001H83.5833ZM91.9167 45.8334V4.16675H96.0833V45.8334H91.9167ZM75.25 29.1667V20.8334H79.4167V29.1667H75.25ZM100.25 37.5001V12.5001H104.417V37.5001H100.25ZM108.583 29.1667V20.8334H112.75V29.1667H108.583Z" fill="#FF9B25"/>
</g>
<path d="M9.592 78.598C13.882 78.598 16.61 80.006 16.61 82.36C16.61 84.714 13.882 86.122 9.592 86.122C5.302 86.122 2.574 84.714 2.574 82.36C2.574 80.006 5.302 78.598 9.592 78.598ZM0.748 89.378V87.464H18.436V89.378H0.748ZM2.838 97.54V90.962H16.302V97.54H2.838ZM5.06 82.36C5.06 83.592 6.732 84.252 9.592 84.252C12.43 84.252 14.102 83.592 14.102 82.36C14.102 81.106 12.43 80.468 9.592 80.468C6.732 80.468 5.06 81.106 5.06 82.36ZM5.214 95.626H13.926V92.876H5.214V95.626ZM24.6625 79.258H27.0825V80.996C27.0825 83.658 28.6005 86.1 31.6145 87.068L30.3385 88.96C28.2485 88.234 26.7745 86.804 25.9385 84.978C25.0805 87.09 23.4525 88.74 21.0985 89.554L19.8445 87.596C23.0345 86.54 24.6625 83.922 24.6625 81.084V79.258ZM23.0125 93.998C23.0125 91.622 25.5645 90.236 29.6785 90.236C33.7705 90.236 36.3005 91.622 36.3005 93.998C36.3005 96.396 33.7705 97.76 29.6785 97.76C25.5645 97.76 23.0125 96.396 23.0125 93.998ZM25.4545 93.998C25.4545 95.23 26.9505 95.89 29.6785 95.89C32.3625 95.89 33.9025 95.23 33.9025 93.998C33.9025 92.766 32.3625 92.106 29.6785 92.106C26.9505 92.106 25.4545 92.766 25.4545 93.998ZM29.9645 83.966V81.964H33.7925V78.202H36.2125V89.708H33.7925V83.966H29.9645ZM58.0253 78.202H60.4453V92.348H58.0253V78.202ZM44.6053 84.406C44.6053 81.524 46.8933 79.478 49.8413 79.478C52.8113 79.478 55.0773 81.524 55.0773 84.406C55.0773 87.244 52.8113 89.312 49.8413 89.312C46.8933 89.312 44.6053 87.244 44.6053 84.406ZM46.9593 84.406C46.9593 86.1 48.2133 87.2 49.8413 87.2C51.4693 87.2 52.7233 86.1 52.7233 84.406C52.7233 82.668 51.4693 81.568 49.8413 81.568C48.2133 81.568 46.9593 82.668 46.9593 84.406ZM47.5973 97.386V90.94H49.9953V95.45H60.9733V97.386H47.5973ZM68.2559 79.104H70.6979V80.974C70.6979 83.57 72.3259 85.99 75.3839 86.98L74.2179 88.872C71.9739 88.124 70.3899 86.628 69.5099 84.736C68.6519 86.782 67.0019 88.432 64.6919 89.224L63.4819 87.288C66.6499 86.232 68.2559 83.636 68.2559 80.974V79.104ZM66.4079 92.766V90.808H79.6519V97.782H77.2319V92.766H66.4079ZM77.2319 89.906V78.202H79.6519V89.906H77.2319ZM87.8027 87.2H105.491V89.136H97.8347V90.83C101.311 91.05 103.379 92.26 103.379 94.284C103.379 96.506 100.827 97.76 96.6247 97.76C92.4007 97.76 89.8487 96.506 89.8487 94.284C89.8487 92.26 91.9167 91.05 95.4147 90.83V89.136H87.8027V87.2ZM88.6387 84.384C92.2467 84.054 94.5347 82.58 94.9307 80.974H89.4087V79.06H103.907V80.974H98.3627C98.7587 82.602 101.025 84.054 104.655 84.384L103.797 86.276C100.277 85.902 97.6807 84.494 96.6467 82.514C95.6127 84.494 93.0167 85.902 89.4747 86.276L88.6387 84.384ZM92.2907 94.284C92.2907 95.384 93.8087 95.934 96.6247 95.934C99.4187 95.934 100.937 95.384 100.937 94.284C100.937 93.162 99.4187 92.612 96.6247 92.612C93.8087 92.612 92.2907 93.162 92.2907 94.284ZM125.83 78.202H128.25V88.696H125.83V78.202ZM112.432 83.614C112.432 80.93 114.654 79.06 117.668 79.06C120.682 79.06 122.904 80.93 122.904 83.614C122.904 86.32 120.682 88.19 117.668 88.19C114.654 88.19 112.432 86.32 112.432 83.614ZM114.786 83.614C114.786 85.198 115.996 86.188 117.668 86.188C119.34 86.188 120.55 85.198 120.55 83.614C120.55 82.052 119.34 81.04 117.668 81.04C115.996 81.04 114.786 82.052 114.786 83.614ZM115.402 97.54V89.62H117.8V91.644H125.874V89.62H128.25V97.54H115.402ZM117.8 95.604H125.874V93.514H117.8V95.604ZM145.146 78.18H147.544V97.76H145.146V78.18ZM132.43 92.854V80.072H134.828V90.786C137.534 90.742 140.416 90.544 143.43 89.928L143.716 91.952C140.328 92.634 137.138 92.854 134.124 92.854H132.43ZM163.363 78.158H165.805V85.594H168.775V87.596H165.805V97.804H163.363V78.158ZM151.351 93.03V80.05H160.481V81.986H153.771V91.006C156.829 90.984 159.205 90.852 161.845 90.368L162.087 92.392C159.117 92.942 156.477 93.03 152.957 93.03H151.351ZM171.591 93.778C172.383 93.778 172.933 94.35 172.933 95.142C172.933 95.956 172.383 96.528 171.591 96.528C170.777 96.528 170.205 95.956 170.205 95.142C170.205 94.35 170.777 93.778 171.591 93.778ZM177.714 93.778C178.506 93.778 179.056 94.35 179.056 95.142C179.056 95.956 178.506 96.528 177.714 96.528C176.9 96.528 176.328 95.956 176.328 95.142C176.328 94.35 176.9 93.778 177.714 93.778ZM183.837 93.778C184.629 93.778 185.179 94.35 185.179 95.142C185.179 95.956 184.629 96.528 183.837 96.528C183.023 96.528 182.451 95.956 182.451 95.142C182.451 94.35 183.023 93.778 183.837 93.778Z" fill="black"/>
</svg>
